<?xml version="1.0" encoding="UTF-8"?>
<!DOCTYPE svg PUBLIC "-//W3C//DTD SVG 1.1//EN" "http://www.w3.org/Graphics/SVG/1.1/DTD/svg11.dtd">
<svg xmlns="http://www.w3.org/2000/svg" xmlns:xlink="http://www.w3.org/1999/xlink" version="1.1" width="1398px" height="1564px" viewBox="-0.5 -0.5 1398 1564"><defs/><g><rect x="25" y="1" width="1350" height="300" fill="#404040" stroke="#8a8a8a" stroke-width="3" pointer-events="all"/><rect x="25" y="301" width="1350" height="525" fill="#190e78" stroke="#2800f2" stroke-width="4" pointer-events="all"/><path d="M 1252.5 131 L 1312.5 151 L 1252.5 171 L 1192.5 151 Z" fill="#5a45e0" stroke="#5f0d78" stroke-width="3" stroke-miterlimit="10" transform="rotate(90,1252.5,151)" pointer-events="all"/><path d="M 1114.5 131 L 1174.5 151 L 1114.5 171 L 1054.5 151 Z" fill="#5a45e0" stroke="#5f0d78" stroke-width="3" stroke-miterlimit="10" transform="rotate(90,1114.5,151)" pointer-events="all"/><path d="M 976.5 131 L 1036.5 151 L 976.5 171 L 916.5 151 Z" fill="#5a45e0" stroke="#5f0d78" stroke-width="3" stroke-miterlimit="10" transform="rotate(90,976.5,151)" pointer-events="all"/><path d="M 838.5 131 L 898.5 151 L 838.5 171 L 778.5 151 Z" fill="#5a45e0" stroke="#5f0d78" stroke-width="3" stroke-miterlimit="10" transform="rotate(90,838.5,151)" pointer-events="all"/><path d="M 699.5 131 L 759.5 151 L 699.5 171 L 639.5 151 Z" fill="#5a45e0" stroke="#5f0d78" stroke-width="3" stroke-miterlimit="10" transform="rotate(90,699.5,151)" pointer-events="all"/><path d="M 561.5 131 L 621.5 151 L 561.5 171 L 501.5 151 Z" fill="#5a45e0" stroke="#5f0d78" stroke-width="3" stroke-miterlimit="10" transform="rotate(90,561.5,151)" pointer-events="all"/><path d="M 423.5 131 L 483.5 151 L 423.5 171 L 363.5 151 Z" fill="#5a45e0" stroke="#5f0d78" stroke-width="3" stroke-miterlimit="10" transform="rotate(90,423.5,151)" pointer-events="all"/><path d="M 285.5 131 L 345.5 151 L 285.5 171 L 225.5 151 Z" fill="#5a45e0" stroke="#5f0d78" stroke-width="3" stroke-miterlimit="10" transform="rotate(90,285.5,151)" pointer-events="all"/><path d="M 147.5 131 L 207.5 151 L 147.5 171 L 87.5 151 Z" fill="#5a45e0" stroke="#5f0d78" stroke-width="3" stroke-miterlimit="10" transform="rotate(90,147.5,151)" pointer-events="all"/><rect x="1097.5" y="961" width="300" height="600" fill="none" stroke="none" transform="translate(1247.5,0)scale(-1,1)translate(-1247.5,0)" pointer-events="all"/><rect x="1097.5" y="961" width="170" height="600" fill="none" stroke="none" transform="translate(1182.5,0)scale(-1,1)translate(-1182.5,0)" pointer-events="all"/><rect x="1267.5" y="961" width="130" height="160" fill="none" stroke="none" transform="translate(1332.5,0)scale(-1,1)translate(-1332.5,0)" pointer-events="all"/><rect x="1267.5" y="1181" width="130" height="160" fill="none" stroke="none" transform="translate(1332.5,0)scale(-1,1)translate(-1332.5,0)" pointer-events="all"/><rect x="1267.5" y="1401" width="130" height="160" fill="none" stroke="none" transform="translate(1332.5,0)scale(-1,1)translate(-1332.5,0)" pointer-events="all"/><rect x="25" y="1" width="1350" height="300" fill="#404040" stroke="#8a8a8a" stroke-width="3" pointer-events="all"/><rect x="25" y="301" width="1350" height="525" fill="#990b06" stroke="#bd0e08" stroke-width="4" pointer-events="all"/><rect x="2.5" y="961" width="300" height="600" fill="#404040" stroke="#ffffff" stroke-width="5" pointer-events="all"/><rect x="2.5" y="961" width="300" height="600" fill="#404040" stroke="#ffffff" stroke-width="5" transform="translate(152.5,0)scale(-1,1)translate(-152.5,0)" pointer-events="all"/><path d="M 475 301 L 475 826" fill="none" stroke="#ffffff" stroke-width="7" stroke-miterlimit="10" pointer-events="stroke"/><path d="M 925 301 L 925 826" fill="none" stroke="#ffffff" stroke-width="7" stroke-miterlimit="10" pointer-events="stroke"/></g></svg>